# Blender v2.78 (sub 0) OBJ File: ''
# www.blender.org
mtllib bird.mtl
o Plane_Plane.002
v 0.131331 0.183532 2.632397
v 0.131331 1.429193 -0.079410
v 0.770597 -1.629857 3.206342
v 0.770597 -0.384196 0.494535
v 1.474565 2.174567 1.753471
v 0.891292 2.925953 3.834640
v 0.002855 0.183532 2.632397
v 0.067093 -0.121583 2.128185
v 0.002855 1.429193 -0.079410
v 0.067093 1.242712 -0.692370
v -0.636411 -1.629857 3.206342
v -0.636411 -0.384196 0.494535
v -1.340379 2.174567 1.753471
v -0.757106 2.925953 3.834640
vn 0.9904 -0.1249 -0.0589
vn -0.9106 -0.3756 -0.1725
vn 0.9708 -0.2179 -0.1001
vn -0.8261 0.4149 -0.3813
vn -0.9904 -0.1249 -0.0589
vn 0.9106 -0.3756 -0.1725
vn -0.9708 -0.2179 -0.1001
vn 0.8261 0.4149 -0.3813
usemtl None
s off
f 1//1 8//1 10//1 2//1
f 1//2 2//2 4//2 3//2
f 3//3 4//3 5//3
f 5//4 4//4 6//4
f 7//5 9//5 10//5 8//5
f 7//6 11//6 12//6 9//6
f 11//7 13//7 12//7
f 13//8 14//8 12//8
